General
Complete name : Rocky-the rebel.DVDRip.aaaevilacharya
Format : AVI
Format/Info : Audio Video Interleave
Format profile : OpenDML
File size : 1.36 GiB
Duration : 1h 59mn
Overall bit rate : 1 626 Kbps
Writing library : MPlayer

Video
ID : 0
Format : AVC
Format/Info : Advanced Video Codec
Format profile : Main@L5.1
Format settings, CABAC : Yes
Format settings, ReFrames : 8 frames
Codec ID : H264
Duration : 1h 59mn
Bit rate : 1 185 Kbps
Width : 720 pixels
Height : 384 pixels
Display aspect ratio : 1.875
Frame rate : 23.976 fps
Color space : YUV
Chroma subsampling : 4:2:0
Bit depth : 8 bits
Scan type : Progressive
Bits/(Pixel*Frame) : 0.179
Stream size : 1 001 MiB (72%)
Writing library : x264 core 54 rev 600



Audio   HINDI.
ID : 1
Format : AC-3
Format/Info : Audio Coding 3
Mode extension : CM (complete main)
Codec ID : 2000
Duration : 1h 59mn
Bit rate mode : Constant
Bit rate : 448 Kbps
Channel(s) : 6 channels
Channel positions : Front: L C R, Side: L R, LFE
Sampling rate : 48.0 KHz
Stream size : 383 MiB (28%)
Alignment : Split accross interleaves
Interleave, duration : 500 ms (11.99 video frames)
Interleave, preload duration : 500 ms

